<?xml version="1.0" encoding="utf-8"?>
<!-- Uploaded to: SVG Repo, www.svgrepo.com, Generator: SVG Repo Mixer Tools -->
<svg width="800px" height="800px" viewBox="0 0 1024 1024" class="icon"  version="1.1" xmlns="http://www.w3.org/2000/svg"><path d="M752.5 529.4H276.9c-73.8 0-133.6-59.8-133.6-133.6V358c0-154.1 124.9-279 279-279h184.8c154.1 0 279 124.9 279 279v37.8c-0.1 73.8-59.9 133.6-133.6 133.6z" fill="#E2B97F" /><path d="M757 540.1H272.4c-77 0-139.7-62.7-139.7-139.7v-51.7c0-74.8 29.1-145.2 82.1-198.1 52.9-53 123.2-82.1 198.1-82.1h203.6c74.8 0 145.2 29.1 198.1 82.1 52.9 52.9 82.1 123.3 82.1 198.1v51.7c0 77-62.7 139.7-139.7 139.7zM412.9 89.7c-69.2 0-134.2 26.9-183.1 75.8S154 279.4 154 348.6v51.7c0 65.3 53.1 118.4 118.4 118.4H757c65.3 0 118.4-53.1 118.4-118.4v-51.7c0-69.2-26.9-134.2-75.8-183.1-48.9-48.9-113.9-75.8-183.1-75.8H412.9z" fill="#680946" /><path d="M181.6 713.1h666.1c21.2 0 38.3 17.2 38.3 38.3v12.8C886 866.9 802.8 950 700.2 950H329.1c-102.6 0-185.8-83.2-185.8-185.8v-12.8c0-21.2 17.2-38.3 38.3-38.3z" fill="#E2B97F" /><path d="M706.5 960.7H322.9c-104.9 0-190.2-85.3-190.2-190.2v-20.4c0-26.3 21.4-47.7 47.7-47.7H849c26.3 0 47.7 21.4 47.7 47.7v20.4c0 104.9-85.4 190.2-190.2 190.2z m-526.1-237c-14.6 0-26.4 11.9-26.4 26.4v20.4c0 93.2 75.8 168.9 168.9 168.9h383.6c93.2 0 168.9-75.8 168.9-168.9v-20.4c0-14.6-11.9-26.4-26.4-26.4H180.4z" fill="#680946" /><path d="M387.1 367.3m-28.3 0a28.3 28.3 0 1 0 56.6 0 28.3 28.3 0 1 0-56.6 0Z" fill="#C13105" /><path d="M514.7 367.3m-28.3 0a28.3 28.3 0 1 0 56.6 0 28.3 28.3 0 1 0-56.6 0Z" fill="#C13105" /><path d="M642.2 367.3m-28.3 0a28.3 28.3 0 1 0 56.6 0 28.3 28.3 0 1 0-56.6 0Z" fill="#C13105" /><path d="M332.6 256.7m-28.3 0a28.3 28.3 0 1 0 56.6 0 28.3 28.3 0 1 0-56.6 0Z" fill="#C13105" /><path d="M454 256.7m-28.3 0a28.3 28.3 0 1 0 56.6 0 28.3 28.3 0 1 0-56.6 0Z" fill="#C13105" /><path d="M575.4 256.7m-28.3 0a28.3 28.3 0 1 0 56.6 0 28.3 28.3 0 1 0-56.6 0Z" fill="#C13105" /><path d="M696.8 256.7m-28.3 0a28.3 28.3 0 1 0 56.6 0 28.3 28.3 0 1 0-56.6 0Z" fill="#C13105" /><path d="M851.5 599.8H177.9c-19.8 0-36.1-16.2-36.1-36.1 0-19.8 16.2-36.1 36.1-36.1h673.6c19.8 0 36.1 16.2 36.1 36.1 0 19.8-16.3 36.1-36.1 36.1z" fill="#F75708" /><path d="M851.5 610.4H177.9c-25.8 0-46.7-21-46.7-46.7s21-46.7 46.7-46.7h673.6c25.8 0 46.7 21 46.7 46.7s-21 46.7-46.7 46.7z m-673.6-72.2c-14 0-25.5 11.4-25.5 25.5s11.4 25.5 25.5 25.5h673.6c14 0 25.5-11.4 25.5-25.5s-11.4-25.5-25.5-25.5H177.9z" fill="#680946" /><path d="M886 689.7c-30.6 0-46.4-14.3-60.2-26.9-12.6-11.5-23.5-21.4-45.9-21.4s-33.3 9.9-45.9 21.4c-13.9 12.6-29.6 26.9-60.2 26.9s-46.3-14.3-60.2-26.9c-12.6-11.5-23.5-21.4-45.9-21.4s-33.3 9.9-45.9 21.4c-13.9 12.6-29.6 26.9-60.2 26.9s-46.3-14.3-60.2-26.9c-12.6-11.5-23.5-21.4-45.9-21.4s-33.3 9.9-45.9 21.4c-13.9 12.6-29.6 26.9-60.2 26.9s-46.4-14.3-60.2-26.9c-12.6-11.5-23.5-21.4-45.9-21.4-5.9 0-10.6-4.8-10.6-10.6s4.8-10.6 10.6-10.6c30.6 0 46.4 14.3 60.2 26.9 12.6 11.5 23.5 21.4 45.9 21.4s33.3-9.9 45.9-21.4c13.9-12.6 29.6-26.9 60.2-26.9s46.4 14.3 60.2 26.9c12.6 11.5 23.5 21.4 45.9 21.4s33.3-9.9 45.9-21.4c13.9-12.6 29.6-26.9 60.2-26.9s46.4 14.3 60.2 26.9c12.6 11.5 23.5 21.4 45.9 21.4s33.3-9.9 45.9-21.4c13.9-12.6 29.6-26.9 60.2-26.9s46.4 14.3 60.2 26.9c12.6 11.5 23.5 21.4 45.9 21.4 5.9 0 10.6 4.8 10.6 10.6s-4.7 10.6-10.6 10.6z" fill="#80D331" /><path d="M340.5 866l106.9-152.9H233.7z" fill="#FFD400" /><path d="M340.5 876.6c-3.5 0-6.7-1.7-8.7-4.5L225 719.1c-2.3-3.2-2.5-7.5-0.7-11s5.5-5.7 9.4-5.7h213.7c4 0 7.6 2.2 9.4 5.7 1.8 3.5 1.6 7.8-0.7 11l-106.9 153c-1.9 2.8-5.2 4.5-8.7 4.5z m-86.4-152.9l86.5 123.7L427 723.7H254.1z" fill="#680946" /><path d="M688.8 866l106.9-152.9H582z" fill="#FFD400" /><path d="M688.8 876.6c-3.5 0-6.7-1.7-8.7-4.5l-106.9-153c-2.3-3.2-2.5-7.5-0.7-11s5.5-5.7 9.4-5.7h213.7c4 0 7.6 2.2 9.4 5.7 1.8 3.5 1.6 7.8-0.7 11l-106.8 153c-2 2.8-5.2 4.5-8.7 4.5z m-86.5-152.9l86.5 123.7 86.5-123.7h-173z" fill="#680946" /></svg>